# xmcd CD database file
# Copyright (C) 1993-1998 Ti Kan
#
# Track frame offsets:
#	150
#	20457
#	37340
#	53625
#	71070
#	88082
#	105695
#	109672
#	130372
#	149692
#	164830
#	181885
#
# Disc length: 2432 seconds
#
# Revision: 2
# Processed by: cddbd v1.4b41PL1 Copyright (c) Steve Scherf et al.
# Submitted via: CDmax 1.5
#
DISCID=b5097e0c
DTITLE=Kevin Welch and the Overtones - Western Beat
DYEAR=1900
DGENRE=
TTITLE0=Early Summer Rain
TTITLE1=The Other Side
TTITLE2=I Look For You
TTITLE3=Happy Ever After (Comes One Day At A Time)
TTITLE4=Something 'Bout You
TTITLE5=Sam's Town
TTITLE6=Webelo Waggle
TTITLE7=Same Old Rain
TTITLE8=Train To Birmingham
TTITLE9=The Restless Kind
TTITLE10=Me And Billy The Kid
TTITLE11=The End
EXTD=
EXTT0=
EXTT1=
EXTT2=
EXTT3=
EXTT4=
EXTT5=
EXTT6=
EXTT7=
EXTT8=
EXTT9=
EXTT10=
EXTT11=
PLAYORDER=
